<svg xmlns="http://www.w3.org/2000/svg" width="312" height="288" fill="none" xmlns:v="https://vecta.io/nano"><style><![CDATA[.B{fill-opacity:.12}.C{fill-opacity:.04}.D{fill-opacity:.08}]]></style><g fill="#000"><use href="#B" class="B"/><use href="#B" x="12" class="B"/><use href="#B" x="24" class="C"/><use href="#B" x="36" class="C"/><use href="#B" x="48" class="D"/><use href="#B" x="60" class="C"/><use href="#B" x="72" class="C"/><use href="#B" x="84" class="B"/><use href="#B" x="96" class="D"/><use href="#B" x="108" class="B"/><use href="#B" x="120" class="B"/><use href="#B" x="132" class="C"/><use href="#B" x="144" class="B"/><use href="#B" x="156" class="C"/><use href="#B" x="168" class="C"/><use href="#B" x="180" class="B"/><use href="#B" x="192" class="D"/><use href="#B" x="204" class="D"/><use href="#B" x="216" class="D"/><use href="#B" x="228" class="C"/><use href="#B" x="240" class="C"/><use href="#B" x="252" class="C"/><use href="#B" x="264" class="D"/><use href="#B" x="276" class="B"/><use href="#B" x="288" class="C"/><use href="#B" x="300" class="D"/><use href="#B" y="12" class="D"/><use href="#B" x="12" y="12" class="D"/><use href="#B" x="24" y="12" class="C"/><use href="#B" x="36" y="12" class="C"/><use href="#B" x="48" y="12" class="B"/><use href="#B" x="60" y="12" class="D"/><use href="#B" x="72" y="12" class="B"/><use href="#B" x="84" y="12" class="C"/><use href="#B" x="96" y="12" class="C"/><use href="#B" x="108" y="12" class="D"/><use href="#B" x="120" y="12" class="B"/><use href="#B" x="132" y="12" class="C"/><use href="#B" x="144" y="12" class="B"/><use href="#B" x="156" y="12" class="C"/><use href="#B" x="168" y="12" class="D"/><use href="#B" x="180" y="12" class="D"/><use href="#B" x="192" y="12" class="C"/><use href="#B" x="204" y="12" class="B"/><use href="#B" x="216" y="12" class="B"/><use href="#B" x="228" y="12" class="C"/><use href="#B" x="240" y="12" class="C"/><use href="#B" x="252" y="12" class="B"/><use href="#B" x="264" y="12" class="D"/><use href="#B" x="276" y="12" class="C"/><use href="#B" x="288" y="12" class="D"/><use href="#B" x="300" y="12" class="C"/><use href="#B" y="24" class="D"/><use href="#B" x="12" y="24" class="C"/><use href="#B" x="24" y="24" class="D"/><use href="#B" x="36" y="24" class="C"/><use href="#B" x="48" y="24" class="B"/><use href="#B" x="60" y="24" class="D"/><use href="#B" x="72" y="24" class="C"/><use href="#B" x="84" y="24" class="D"/><use href="#B" x="96" y="24" class="C"/><use href="#B" x="108" y="24" class="B"/><use href="#B" x="120" y="24" class="C"/><use href="#B" x="132" y="24" class="B"/><use href="#B" x="144" y="24" class="C"/><use href="#B" x="156" y="24" class="B"/><use href="#B" x="168" y="24" class="D"/><use href="#B" x="180" y="24" class="D"/><use href="#B" x="192" y="24" class="D"/><use href="#B" x="204" y="24" class="B"/><use href="#B" x="216" y="24" class="C"/><use href="#B" x="228" y="24" class="B"/><use href="#B" x="240" y="24" class="D"/><use href="#B" x="252" y="24" class="D"/><use href="#B" x="264" y="24" class="C"/><use href="#B" x="276" y="24" class="C"/><use href="#B" x="288" y="24" class="C"/><use href="#B" x="300" y="24" class="C"/><use href="#B" y="36" class="C"/><use href="#B" x="12" y="36" class="C"/><use href="#B" x="24" y="36" class="C"/><use href="#B" x="36" y="36" class="B"/><use href="#B" x="48" y="36" class="D"/><use href="#B" x="60" y="36" class="B"/><use href="#B" x="72" y="36" class="D"/><use href="#B" x="84" y="36" class="C"/><use href="#B" x="96" y="36" class="C"/><use href="#B" x="108" y="36" class="B"/><use href="#B" x="120" y="36" class="D"/><use href="#B" x="132" y="36" class="B"/><use href="#B" x="144" y="36" class="B"/><use href="#B" x="156" y="36" class="C"/><use href="#B" x="168" y="36" class="C"/><use href="#B" x="180" y="36" class="C"/><use href="#B" x="192" y="36" class="B"/><use href="#B" x="204" y="36" class="D"/><use href="#B" x="216" y="36" class="D"/><use href="#B" x="228" y="36" class="C"/><use href="#B" x="240" y="36" class="D"/><use href="#B" x="252" y="36" class="D"/><use href="#B" x="264" y="36" class="D"/><use href="#B" x="276" y="36" class="B"/><use href="#B" x="288" y="36" class="D"/><use href="#B" x="300" y="36" class="B"/><use href="#B" y="48" class="D"/><use href="#B" x="12" y="48" class="B"/><use href="#B" x="24" y="48" class="B"/><use href="#B" x="36" y="48" class="D"/><use href="#B" x="48" y="48" class="C"/><use href="#B" x="60" y="48" class="B"/><use href="#B" x="72" y="48" class="B"/><use href="#B" x="84" y="48" class="D"/><use href="#B" x="96" y="48" class="C"/><use href="#B" x="108" y="48" class="D"/><use href="#B" x="120" y="48" class="C"/><use href="#B" x="132" y="48" class="B"/><use href="#B" x="144" y="48" class="C"/><use href="#B" x="156" y="48" class="B"/><use href="#B" x="168" y="48" class="D"/><use href="#B" x="180" y="48" class="C"/><use href="#B" x="192" y="48" class="B"/><use href="#B" x="204" y="48" class="B"/><use href="#B" x="216" y="48" class="C"/><use href="#B" x="228" y="48" class="B"/><use href="#B" x="240" y="48" class="D"/><use href="#B" x="252" y="48" class="B"/><use href="#B" x="264" y="48" class="D"/><use href="#B" x="276" y="48" class="C"/><use href="#B" x="288" y="48" class="D"/><use href="#B" x="300" y="48" class="B"/><use href="#B" y="60" class="D"/><use href="#B" x="12" y="60" class="B"/><use href="#B" x="24" y="60" class="B"/><use href="#B" x="36" y="60" class="C"/><use href="#B" x="48" y="60" class="B"/><use href="#B" x="60" y="60" class="B"/><use href="#B" x="72" y="60" class="D"/><use href="#B" x="84" y="60" class="C"/><use href="#B" x="96" y="60" class="C"/><use href="#B" x="108" y="60" class="C"/><use href="#B" x="120" y="60" class="B"/><use href="#B" x="132" y="60" class="B"/><use href="#B" x="144" y="60" class="B"/><use href="#B" x="156" y="60" class="C"/><use href="#B" x="168" y="60" class="B"/><use href="#B" x="180" y="60" class="C"/><use href="#B" x="192" y="60" class="C"/><use href="#B" x="204" y="60" class="D"/><use href="#B" x="216" y="60" class="D"/><use href="#B" x="228" y="60" class="B"/><use href="#B" x="240" y="60" class="D"/><use href="#B" x="252" y="60" class="D"/><use href="#B" x="264" y="60" class="D"/><use href="#B" x="276" y="60" class="D"/><use href="#B" x="288" y="60" class="B"/><use href="#B" x="300" y="60" class="C"/><use href="#B" y="72" class="C"/><use href="#B" x="12" y="72" class="B"/><use href="#B" x="24" y="72" class="D"/><use href="#B" x="36" y="72" class="C"/><use href="#B" x="48" y="72" class="D"/><use href="#B" x="60" y="72" class="B"/><use href="#B" x="72" y="72" class="B"/><use href="#B" x="84" y="72" class="D"/><use href="#B" x="96" y="72" class="C"/><use href="#B" x="108" y="72" class="C"/><use href="#B" x="120" y="72" class="C"/><use href="#B" x="132" y="72" class="B"/><use href="#B" x="144" y="72" class="D"/><use href="#B" x="156" y="72" class="D"/><use href="#B" x="168" y="72" class="B"/><use href="#B" x="180" y="72" class="C"/><use href="#B" x="192" y="72" class="D"/><use href="#B" x="204" y="72" class="D"/><use href="#B" x="216" y="72" class="B"/><use href="#B" x="228" y="72" class="B"/><use href="#B" x="240" y="72" class="C"/><use href="#B" x="252" y="72" class="D"/><use href="#B" x="264" y="72" class="D"/><use href="#B" x="276" y="72" class="B"/><use href="#B" x="288" y="72" class="B"/><use href="#B" x="300" y="72" class="B"/><use href="#B" y="84" class="C"/><use href="#B" x="12" y="84" class="B"/><use href="#B" x="24" y="84" class="B"/><use href="#B" x="36" y="84" class="C"/><use href="#B" x="48" y="84" class="B"/><use href="#B" x="60" y="84" class="D"/><use href="#B" x="72" y="84" class="D"/><use href="#B" x="84" y="84" class="B"/><use href="#B" x="96" y="84" class="D"/><use href="#B" x="108" y="84" class="D"/><use href="#B" x="120" y="84" class="D"/><use href="#B" x="132" y="84" class="C"/><use href="#B" x="144" y="84" class="C"/><use href="#B" x="156" y="84" class="B"/><use href="#B" x="168" y="84" class="D"/><use href="#B" x="180" y="84" class="D"/><use href="#B" x="192" y="84" class="C"/><use href="#B" x="204" y="84" class="C"/><use href="#B" x="216" y="84" class="B"/><use href="#B" x="228" y="84" class="C"/><use href="#B" x="240" y="84" class="B"/><use href="#B" x="252" y="84" class="D"/><use href="#B" x="264" y="84" class="D"/><use href="#B" x="276" y="84" class="D"/><use href="#B" x="288" y="84" class="D"/><use href="#B" x="300" y="84" class="C"/><use href="#B" y="96" class="D"/><use href="#B" x="12" y="96" class="D"/><use href="#B" x="24" y="96" class="C"/><use href="#B" x="36" y="96" class="C"/><use href="#B" x="48" y="96" class="D"/><use href="#B" x="60" y="96" class="C"/><use href="#B" x="72" y="96" class="B"/><use href="#B" x="84" y="96" class="D"/><use href="#B" x="96" y="96" class="D"/><use href="#B" x="108" y="96" class="C"/><use href="#B" x="120" y="96" class="C"/><use href="#B" x="132" y="96" class="C"/><use href="#B" x="144" y="96" class="C"/><use href="#B" x="156" y="96" class="D"/><use href="#B" x="168" y="96" class="B"/><use href="#B" x="180" y="96" class="D"/><use href="#B" x="192" y="96" class="C"/><use href="#B" x="204" y="96" class="B"/><use href="#B" x="216" y="96" class="B"/><use href="#B" x="228" y="96" class="B"/><use href="#B" x="240" y="96" class="C"/><use href="#B" x="252" y="96" class="B"/><use href="#B" x="264" y="96" class="B"/><use href="#B" x="276" y="96" class="D"/><use href="#B" x="288" y="96" class="C"/><use href="#B" x="300" y="96" class="B"/><use href="#B" y="108" class="C"/><use href="#B" x="12" y="108" class="B"/><use href="#B" x="24" y="108" class="B"/><use href="#B" x="36" y="108" class="C"/><use href="#B" x="48" y="108" class="C"/><use href="#B" x="60" y="108" class="D"/><use href="#B" x="72" y="108" class="B"/><use href="#B" x="84" y="108" class="C"/><use href="#B" x="96" y="108" class="D"/><use href="#B" x="108" y="108" class="B"/><use href="#B" x="120" y="108" class="C"/><use href="#B" x="132" y="108" class="D"/><use href="#B" x="144" y="108" class="D"/><use href="#B" x="156" y="108" class="C"/><use href="#B" x="168" y="108" class="C"/><use href="#B" x="180" y="108" class="C"/><use href="#B" x="192" y="108" class="D"/><use href="#B" x="204" y="108" class="D"/><use href="#B" x="216" y="108" class="B"/><use href="#B" x="228" y="108" class="B"/><use href="#B" x="240" y="108" class="B"/><use href="#B" x="252" y="108" class="D"/><use href="#B" x="264" y="108" class="B"/><use href="#B" x="276" y="108" class="B"/><use href="#B" x="288" y="108" class="C"/><use href="#B" x="300" y="108" class="C"/><use href="#B" y="120" class="B"/><use href="#B" x="12" y="120" class="C"/><use href="#B" x="24" y="120" class="D"/><use href="#B" x="36" y="120" class="C"/><use href="#B" x="48" y="120" class="C"/><use href="#B" x="60" y="120" class="B"/><use href="#B" x="72" y="120" class="C"/><use href="#B" x="84" y="120" class="C"/><use href="#B" x="96" y="120" class="C"/><use href="#B" x="108" y="120" class="D"/><use href="#B" x="120" y="120" class="C"/><use href="#B" x="132" y="120" class="D"/><use href="#B" x="144" y="120" class="C"/><use href="#B" x="156" y="120" class="C"/><use href="#B" x="168" y="120" class="D"/><use href="#B" x="180" y="120" class="D"/><use href="#B" x="192" y="120" class="B"/><use href="#B" x="204" y="120" class="D"/><use href="#B" x="216" y="120" class="B"/><use href="#B" x="228" y="120" class="B"/><use href="#B" x="240" y="120" class="B"/><use href="#B" x="252" y="120" class="B"/><use href="#B" x="264" y="120" class="D"/><use href="#B" x="276" y="120" class="B"/><use href="#B" x="288" y="120" class="D"/><use href="#B" x="300" y="120" class="C"/><use href="#B" y="132" class="B"/><use href="#B" x="12" y="132" class="C"/><use href="#B" x="24" y="132" class="C"/><use href="#B" x="36" y="132" class="B"/><use href="#B" x="48" y="132" class="B"/><use href="#B" x="60" y="132" class="C"/><use href="#B" x="72" y="132" class="B"/><use href="#B" x="84" y="132" class="B"/><use href="#B" x="96" y="132" class="D"/><use href="#B" x="108" y="132" class="B"/><use href="#B" x="120" y="132" class="C"/><use href="#B" x="132" y="132" class="C"/><use href="#B" x="144" y="132" class="C"/><use href="#B" x="156" y="132" class="C"/><use href="#B" x="168" y="132" class="B"/><use href="#B" x="180" y="132" class="D"/><use href="#B" x="192" y="132" class="D"/><use href="#B" x="204" y="132" class="C"/><use href="#B" x="216" y="132" class="B"/><use href="#B" x="228" y="132" class="B"/><use href="#B" x="240" y="132" class="D"/><use href="#B" x="252" y="132" class="D"/><use href="#B" x="264" y="132" class="B"/><use href="#B" x="276" y="132" class="C"/><use href="#B" x="288" y="132" class="D"/><use href="#B" x="300" y="132" class="C"/><use href="#B" y="144" class="D"/><use href="#B" x="12" y="144" class="C"/><use href="#B" x="24" y="144" class="C"/><use href="#B" x="36" y="144" class="C"/><use href="#B" x="48" y="144" class="B"/><use href="#B" x="60" y="144" class="D"/><use href="#B" x="72" y="144" class="D"/><use href="#B" x="84" y="144" class="D"/><use href="#B" x="96" y="144" class="D"/><use href="#B" x="108" y="144" class="D"/><use href="#B" x="120" y="144" class="B"/><use href="#B" x="132" y="144" class="C"/><use href="#B" x="144" y="144" class="B"/><use href="#B" x="156" y="144" class="C"/><use href="#B" x="168" y="144" class="B"/><use href="#B" x="180" y="144" class="D"/><use href="#B" x="192" y="144" class="C"/><use href="#B" x="204" y="144" class="B"/><use href="#B" x="216" y="144" class="D"/><use href="#B" x="228" y="144" class="B"/><use href="#B" x="240" y="144" class="D"/><use href="#B" x="252" y="144" class="C"/><use href="#B" x="264" y="144" class="B"/><use href="#B" x="276" y="144" class="D"/><use href="#B" x="288" y="144" class="D"/><use href="#B" x="300" y="144" class="D"/><use href="#B" y="156" class="B"/><use href="#B" x="12" y="156" class="B"/><use href="#B" x="24" y="156" class="B"/><use href="#B" x="36" y="156" class="D"/><use href="#B" x="48" y="156" class="B"/><use href="#B" x="60" y="156" class="D"/><use href="#B" x="72" y="156" class="C"/><use href="#B" x="84" y="156" class="D"/><use href="#B" x="96" y="156" class="C"/><use href="#B" x="108" y="156" class="D"/><use href="#B" x="120" y="156" class="B"/><use href="#B" x="132" y="156" class="C"/><use href="#B" x="144" y="156" class="D"/><use href="#B" x="156" y="156" class="C"/><use href="#B" x="168" y="156" class="B"/><use href="#B" x="180" y="156" class="C"/><use href="#B" x="192" y="156" class="B"/><use href="#B" x="204" y="156" class="D"/><use href="#B" x="216" y="156" class="B"/><use href="#B" x="228" y="156" class="B"/><use href="#B" x="240" y="156" class="B"/><use href="#B" x="252" y="156" class="C"/><use href="#B" x="264" y="156" class="B"/><use href="#B" x="276" y="156" class="C"/><use href="#B" x="288" y="156" class="D"/><use href="#B" x="300" y="156" class="B"/><use href="#B" y="168" class="B"/><use href="#B" x="12" y="168" class="D"/><use href="#B" x="24" y="168" class="C"/><use href="#B" x="36" y="168" class="D"/><use href="#B" x="48" y="168" class="D"/><use href="#B" x="60" y="168" class="C"/><use href="#B" x="72" y="168" class="C"/><use href="#B" x="84" y="168" class="B"/><use href="#B" x="96" y="168" class="B"/><use href="#B" x="108" y="168" class="B"/><use href="#B" x="120" y="168" class="C"/><use href="#B" x="132" y="168" class="C"/><use href="#B" x="144" y="168" class="D"/><use href="#B" x="156" y="168" class="D"/><use href="#B" x="168" y="168" class="B"/><use href="#B" x="180" y="168" class="C"/><use href="#B" x="192" y="168" class="B"/><use href="#B" x="204" y="168" class="D"/><use href="#B" x="216" y="168" class="B"/><use href="#B" x="228" y="168" class="B"/><use href="#B" x="240" y="168" class="D"/><use href="#B" x="252" y="168" class="B"/><use href="#B" x="264" y="168" class="B"/><use href="#B" x="276" y="168" class="C"/><use href="#B" x="288" y="168" class="C"/><use href="#B" x="300" y="168" class="C"/><use href="#B" y="180" class="B"/><use href="#B" x="12" y="180" class="C"/><use href="#B" x="24" y="180" class="C"/><use href="#B" x="36" y="180" class="D"/><use href="#B" x="48" y="180" class="D"/><use href="#B" x="60" y="180" class="C"/><use href="#B" x="72" y="180" class="B"/><use href="#B" x="84" y="180" class="C"/><use href="#B" x="96" y="180" class="D"/><use href="#B" x="108" y="180" class="C"/><use href="#B" x="120" y="180" class="D"/><use href="#B" x="132" y="180" class="B"/><use href="#B" x="144" y="180" class="B"/><use href="#B" x="156" y="180" class="B"/><use href="#B" x="168" y="180" class="B"/><use href="#B" x="180" y="180" class="C"/><use href="#B" x="192" y="180" class="B"/><use href="#B" x="204" y="180" class="B"/><use href="#B" x="216" y="180" class="B"/><use href="#B" x="228" y="180" class="D"/><use href="#B" x="240" y="180" class="D"/><use href="#B" x="252" y="180" class="C"/><use href="#B" x="264" y="180" class="C"/><use href="#B" x="276" y="180" class="B"/><use href="#B" x="288" y="180" class="C"/><use href="#B" x="300" y="180" class="B"/><use href="#B" y="192" class="D"/><use href="#B" x="12" y="192" class="B"/><use href="#B" x="24" y="192" class="B"/><use href="#B" x="36" y="192" class="D"/><use href="#B" x="48" y="192" class="C"/><use href="#B" x="60" y="192" class="B"/><use href="#B" x="72" y="192" class="D"/><use href="#B" x="84" y="192" class="B"/><use href="#B" x="96" y="192" class="B"/><use href="#B" x="108" y="192" class="D"/><use href="#B" x="120" y="192" class="B"/><use href="#B" x="132" y="192" class="D"/><use href="#B" x="144" y="192" class="D"/><use href="#B" x="156" y="192" class="B"/><use href="#B" x="168" y="192" class="D"/><use href="#B" x="180" y="192" class="B"/><use href="#B" x="192" y="192" class="B"/><use href="#B" x="204" y="192" class="D"/><use href="#B" x="216" y="192" class="D"/><use href="#B" x="228" y="192" class="B"/><use href="#B" x="240" y="192" class="C"/><use href="#B" x="252" y="192" class="C"/><use href="#B" x="264" y="192" class="C"/><use href="#B" x="276" y="192" class="B"/><use href="#B" x="288" y="192" class="B"/><use href="#B" x="300" y="192" class="D"/><use href="#B" y="204" class="B"/><use href="#B" x="12" y="204" class="D"/><use href="#B" x="24" y="204" class="B"/><use href="#B" x="36" y="204" class="C"/><use href="#B" x="48" y="204" class="C"/><use href="#B" x="60" y="204" class="C"/><use href="#B" x="72" y="204" class="B"/><use href="#B" x="84" y="204" class="D"/><use href="#B" x="96" y="204" class="D"/><use href="#B" x="108" y="204" class="D"/><use href="#B" x="120" y="204" class="C"/><use href="#B" x="132" y="204" class="B"/><use href="#B" x="144" y="204" class="D"/><use href="#B" x="156" y="204" class="D"/><use href="#B" x="168" y="204" class="D"/><use href="#B" x="180" y="204" class="B"/><use href="#B" x="192" y="204" class="D"/><use href="#B" x="204" y="204" class="B"/><use href="#B" x="216" y="204" class="D"/><use href="#B" x="228" y="204" class="C"/><use href="#B" x="240" y="204" class="D"/><use href="#B" x="252" y="204" class="C"/><use href="#B" x="264" y="204" class="D"/><use href="#B" x="276" y="204" class="C"/><use href="#B" x="288" y="204" class="C"/><use href="#B" x="300" y="204" class="D"/><use href="#B" y="216" class="B"/><use href="#B" x="12" y="216" class="C"/><use href="#B" x="24" y="216" class="D"/><use href="#B" x="36" y="216" class="C"/><use href="#B" x="48" y="216" class="D"/><use href="#B" x="60" y="216" class="D"/><use href="#B" x="72" y="216" class="B"/><use href="#B" x="84" y="216" class="B"/><use href="#B" x="96" y="216" class="C"/><use href="#B" x="108" y="216" class="B"/><use href="#B" x="120" y="216" class="D"/><use href="#B" x="132" y="216" class="C"/><use href="#B" x="144" y="216" class="B"/><use href="#B" x="156" y="216" class="D"/><use href="#B" x="168" y="216" class="C"/><use href="#B" x="180" y="216" class="C"/><use href="#B" x="192" y="216" class="D"/><use href="#B" x="204" y="216" class="C"/><use href="#B" x="216" y="216" class="B"/><use href="#B" x="228" y="216" class="B"/><use href="#B" x="240" y="216" class="D"/><use href="#B" x="252" y="216" class="D"/><use href="#B" x="264" y="216" class="D"/><use href="#B" x="276" y="216" class="D"/><use href="#B" x="288" y="216" class="B"/><use href="#B" x="300" y="216" class="D"/><use href="#B" y="228" class="D"/><use href="#B" x="12" y="228" class="D"/><use href="#B" x="24" y="228" class="B"/><use href="#B" x="36" y="228" class="B"/><use href="#B" x="48" y="228" class="D"/><use href="#B" x="60" y="228" class="C"/><use href="#B" x="72" y="228" class="C"/><use href="#B" x="84" y="228" class="C"/><use href="#B" x="96" y="228" class="D"/><use href="#B" x="108" y="228" class="D"/><use href="#B" x="120" y="228" class="B"/><use href="#B" x="132" y="228" class="B"/><use href="#B" x="144" y="228" class="C"/><use href="#B" x="156" y="228" class="C"/><use href="#B" x="168" y="228" class="D"/><use href="#B" x="180" y="228" class="D"/><use href="#B" x="192" y="228" class="B"/><use href="#B" x="204" y="228" class="D"/><use href="#B" x="216" y="228" class="C"/><use href="#B" x="228" y="228" class="B"/><use href="#B" x="240" y="228" class="C"/><use href="#B" x="252" y="228" class="C"/><use href="#B" x="264" y="228" class="D"/><use href="#B" x="276" y="228" class="C"/><use href="#B" x="288" y="228" class="B"/><use href="#B" x="300" y="228" class="D"/><use href="#B" y="240" class="B"/><use href="#B" x="12" y="240" class="C"/><use href="#B" x="24" y="240" class="C"/><use href="#B" x="36" y="240" class="C"/><use href="#B" x="48" y="240" class="D"/><use href="#B" x="60" y="240" class="C"/><use href="#B" x="72" y="240" class="B"/><use href="#B" x="84" y="240" class="C"/><use href="#B" x="96" y="240" class="B"/><use href="#B" x="108" y="240" class="B"/><use href="#B" x="120" y="240" class="D"/><use href="#B" x="132" y="240" class="C"/><use href="#B" x="144" y="240" class="D"/><use href="#B" x="156" y="240" class="B"/><use href="#B" x="168" y="240" class="D"/><use href="#B" x="180" y="240" class="B"/><use href="#B" x="192" y="240" class="D"/><use href="#B" x="204" y="240" class="D"/><use href="#B" x="216" y="240" class="D"/><use href="#B" x="228" y="240" class="B"/><use href="#B" x="240" y="240" class="D"/><use href="#B" x="252" y="240" class="C"/><use href="#B" x="264" y="240" class="D"/><use href="#B" x="276" y="240" class="B"/><use href="#B" x="288" y="240" class="D"/><use href="#B" x="300" y="240" class="C"/><use href="#B" y="252" class="B"/><use href="#B" x="12" y="252" class="C"/><use href="#B" x="24" y="252" class="B"/><use href="#B" x="36" y="252" class="B"/><use href="#B" x="48" y="252" class="D"/><use href="#B" x="60" y="252" class="B"/><use href="#B" x="72" y="252" class="D"/><use href="#B" x="84" y="252" class="D"/><use href="#B" x="96" y="252" class="D"/><use href="#B" x="108" y="252" class="D"/><use href="#B" x="120" y="252" class="D"/><use href="#B" x="132" y="252" class="C"/><use href="#B" x="144" y="252" class="C"/><use href="#B" x="156" y="252" class="C"/><use href="#B" x="168" y="252" class="C"/><use href="#B" x="180" y="252" class="C"/><use href="#B" x="192" y="252" class="C"/><use href="#B" x="204" y="252" class="D"/><use href="#B" x="216" y="252" class="D"/><use href="#B" x="228" y="252" class="C"/><use href="#B" x="240" y="252" class="B"/><use href="#B" x="252" y="252" class="B"/><use href="#B" x="264" y="252" class="C"/><use href="#B" x="276" y="252" class="D"/><use href="#B" x="288" y="252" class="B"/><use href="#B" x="300" y="252" class="C"/><use href="#B" y="264" class="B"/><use href="#B" x="12" y="264" class="D"/><use href="#B" x="24" y="264" class="B"/><use href="#B" x="36" y="264" class="C"/><use href="#B" x="48" y="264" class="C"/><use href="#B" x="60" y="264" class="C"/><use href="#B" x="72" y="264" class="D"/><use href="#B" x="84" y="264" class="C"/><use href="#B" x="96" y="264" class="D"/><use href="#B" x="108" y="264" class="B"/><use href="#B" x="120" y="264" class="B"/><use href="#B" x="132" y="264" class="C"/><use href="#B" x="144" y="264" class="C"/><use href="#B" x="156" y="264" class="C"/><use href="#B" x="168" y="264" class="C"/><use href="#B" x="180" y="264" class="D"/><use href="#B" x="192" y="264" class="C"/><use href="#B" x="204" y="264" class="D"/><use href="#B" x="216" y="264" class="C"/><use href="#B" x="228" y="264" class="D"/><use href="#B" x="240" y="264" class="C"/><use href="#B" x="252" y="264" class="C"/><use href="#B" x="264" y="264" class="C"/><use href="#B" x="276" y="264" class="D"/><use href="#B" x="288" y="264" class="B"/><use href="#B" x="300" y="264" class="D"/><use href="#B" y="276" class="D"/><use href="#B" x="12" y="276" class="B"/><use href="#B" x="24" y="276" class="B"/><use href="#B" x="36" y="276" class="C"/><use href="#B" x="48" y="276" class="D"/><use href="#B" x="60" y="276" class="D"/><use href="#B" x="72" y="276" class="B"/><use href="#B" x="84" y="276" class="B"/><use href="#B" x="96" y="276" class="D"/><use href="#B" x="108" y="276" class="D"/><use href="#B" x="120" y="276" class="B"/><use href="#B" x="132" y="276" class="B"/><use href="#B" x="144" y="276" class="B"/><use href="#B" x="156" y="276" class="B"/><use href="#B" x="168" y="276" class="B"/><use href="#B" x="180" y="276" class="B"/><use href="#B" x="192" y="276" class="D"/><use href="#B" x="204" y="276" class="B"/><use href="#B" x="216" y="276" class="C"/><use href="#B" x="228" y="276" class="C"/><use href="#B" x="240" y="276" class="B"/><use href="#B" x="252" y="276" class="B"/><use href="#B" x="264" y="276" class="C"/><use href="#B" x="276" y="276" class="C"/><use href="#B" x="288" y="276" class="D"/><use href="#B" x="300" y="276" class="D"/></g><defs ><path id="B" d="M3 6a3 3 0 1 1 6 0 3 3 0 1 1-6 0z"/></defs></svg>