<svg width="409" height="154" viewBox="0 0 409 154" fill="none" xmlns="http://www.w3.org/2000/svg">
<path d="M255.333 102.833C283.592 102.833 306.5 125.741 306.5 154H255.333V102.833Z" fill="#4B15B8"/>
<path d="M306.5 102.833C334.759 102.833 357.667 125.741 357.667 154H306.5V102.833Z" fill="#FFC107"/>
<path d="M357.667 154C357.667 125.741 380.575 102.833 408.833 102.833V154H357.667Z" fill="#FF9407"/>
<path d="M204.167 154C204.167 125.741 227.075 102.833 255.333 102.833V154H204.167Z" fill="#43C749"/>
<path d="M153 102.833C181.259 102.833 204.167 125.741 204.167 154H153V102.833Z" fill="#1976D2"/>
<rect x="101.833" y="102.833" width="51.1667" height="51.1667" rx="25.5833" fill="#FFC107"/>
<path d="M153 102.333C153 74.0748 175.908 51.1667 204.167 51.1667V102.333H153Z" fill="#0080FF"/>
<path d="M306.5 51.1667H357.667V102.333C329.408 102.333 306.5 79.4252 306.5 51.1667Z" fill="#4B15B8"/>
<path d="M357.667 51.1667H408.833C408.833 79.4252 385.925 102.333 357.667 102.333V51.1667Z" fill="#FF5C29"/>
<path d="M204.167 51.1667H255.333C255.333 79.4252 232.425 102.333 204.167 102.333V51.1667Z" fill="#4B15B8"/>
<rect x="255.333" y="51.1667" width="51.1667" height="51.1667" rx="25.5833" fill="#398E3D"/>
<rect y="102.833" width="51.1667" height="51.1667" rx="25.5833" fill="#398E3D"/>
<path d="M51.1667 154C51.1667 125.741 74.0748 102.833 102.333 102.833V154H51.1667Z" fill="#FFDF80"/>
<rect x="204.167" width="51.1667" height="51.1667" rx="25.5833" fill="#FF9407"/>
<path d="M255.333 0C283.592 0 306.5 22.9081 306.5 51.1667H255.333V0Z" fill="#FFC107"/>
<path d="M357.667 51.1667C357.667 22.9081 380.575 0 408.833 0V51.1667H357.667Z" fill="#FFDF80"/>
<path d="M306.5 0C334.759 0 357.667 22.9081 357.667 51.1667H306.5V0Z" fill="#0080FF"/>
<rect x="101.833" y="51" width="51.1667" height="51.1667" rx="25.5833" fill="#4B15B8"/>
</svg>
